<?xml version="1.0" standalone="no"?><svg xmlns="http://www.w3.org/2000/svg" viewBox="0 0 1440 320"><path fill="#0099ff" fill-opacity="1" d="M0,256L21.8,229.3C43.6,203,87,149,131,138.7C174.5,128,218,160,262,170.7C305.5,181,349,171,393,144C436.4,117,480,75,524,96C567.3,117,611,203,655,208C698.2,213,742,139,785,112C829.1,85,873,107,916,117.3C960,128,1004,128,1047,160C1090.9,192,1135,256,1178,240C1221.8,224,1265,128,1309,122.7C1352.7,117,1396,203,1418,245.3L1440,288L1440,0L1418.2,0C1396.4,0,1353,0,1309,0C1265.5,0,1222,0,1178,0C1134.5,0,1091,0,1047,0C1003.6,0,960,0,916,0C872.7,0,829,0,785,0C741.8,0,698,0,655,0C610.9,0,567,0,524,0C480,0,436,0,393,0C349.1,0,305,0,262,0C218.2,0,175,0,131,0C87.3,0,44,0,22,0L0,0Z"></path></svg>