<?xml version="1.0" standalone="no"?><svg xmlns="http://www.w3.org/2000/svg" viewBox="0 0 1440 320"><path fill="#273036" fill-opacity="1" d="M0,160L20,149.3C40,139,80,117,120,96C160,75,200,53,240,74.7C280,96,320,160,360,154.7C400,149,440,75,480,53.3C520,32,560,64,600,112C640,160,680,224,720,240C760,256,800,224,840,197.3C880,171,920,149,960,128C1000,107,1040,85,1080,90.7C1120,96,1160,128,1200,122.7C1240,117,1280,75,1320,69.3C1360,64,1400,96,1420,112L1440,128L1440,0L1420,0C1400,0,1360,0,1320,0C1280,0,1240,0,1200,0C1160,0,1120,0,1080,0C1040,0,1000,0,960,0C920,0,880,0,840,0C800,0,760,0,720,0C680,0,640,0,600,0C560,0,520,0,480,0C440,0,400,0,360,0C320,0,280,0,240,0C200,0,160,0,120,0C80,0,40,0,20,0L0,0Z"></path></svg>